<svg width="693" height="588" viewBox="0 0 693 588" fill="none" xmlns="http://www.w3.org/2000/svg">
<g clip-path="url(#clip0_376_12091)">
<path d="M582.581 153.282L528.962 268.13L438.129 249.269L442.818 234.909L518.211 251.696L566.035 152.942C566.515 151.928 567.249 151.055 568.156 150.395C570.577 148.642 575.618 146.042 581.334 149.375C582.694 150.168 583.254 151.855 582.587 153.282H582.581Z" fill="#0AB4A1"/>
<path d="M302.694 587.047H476.516L476.516 324.797H302.694V587.047Z" fill="#073355"/>
<path d="M467.853 431.132L460.811 452.039C460.811 452.039 471.614 464.799 471.101 479.412C471.101 479.412 427.219 458.105 427.792 454.525C428.372 450.945 443.331 417.991 443.331 417.991L467.86 431.125L467.853 431.132Z" fill="black"/>
<path d="M579.786 404.298L592.618 422.251C592.618 422.251 609.297 420.971 620.841 429.945C620.841 429.945 577.866 453.025 575.298 450.465C572.73 447.898 554.771 416.485 554.771 416.485L579.786 404.305V404.298Z" fill="black"/>
<path d="M523.346 279.91C526.261 274.223 596.966 397.978 595.825 400.458L542.586 427.392L506.667 369.044L523.346 279.917V279.91Z" fill="white" stroke="black" stroke-width="1.92" stroke-miterlimit="10"/>
<path d="M431.44 245.216C431.44 245.216 540.206 254.903 534.023 301.39C534.023 301.39 537.305 336.337 482.859 439.245L427.772 420.331L473.315 325.437L338.294 323.33C338.294 323.33 290.563 307.95 305.609 243.916L368.118 230.496L431.44 245.216Z" fill="white" stroke="black" stroke-width="1.92" stroke-miterlimit="10"/>
<path d="M361.702 131.788C361.702 131.788 358.494 150.382 355.286 153.588C352.079 156.795 341.815 156.795 341.815 156.795L323.215 142.048L336.687 122.168L361.702 131.788Z" fill="white" stroke="black" stroke-width="0.96" stroke-miterlimit="10"/>
<path d="M368.44 132.646C386.457 128.041 397.329 109.708 392.723 91.6971C388.117 73.6862 369.777 62.818 351.76 67.4223C333.743 72.0266 322.871 90.3599 327.477 108.371C332.083 126.382 350.422 137.25 368.44 132.646Z" fill="white"/>
<path d="M360.101 66.7075C378.495 66.7075 393.453 81.6677 393.453 100.048C393.453 118.428 378.488 133.388 360.101 133.388C341.715 133.388 326.75 118.428 326.75 100.048C326.75 81.6677 341.715 66.7075 360.101 66.7075ZM360.101 66.0675C341.328 66.0675 326.109 81.281 326.109 100.048C326.109 118.815 341.328 134.028 360.101 134.028C378.875 134.028 394.094 118.815 394.094 100.048C394.094 81.281 378.875 66.0675 360.101 66.0675Z" fill="black"/>
<path d="M484.993 238.563C487.72 239.676 489.521 246.143 491.802 248.349C494.082 250.556 497.377 248.723 493.942 243.643M484.712 245.449C488.147 250.529 485.666 252.876 483.025 251.123C481.858 250.349 480.344 248.049 479.064 245.816C476.93 242.096 473.228 239.529 468.987 238.896C460.791 237.676 445.365 237.369 420.41 243.936C379.742 254.643 354.046 253.67 346.73 212.496L374.46 205.396C374.78 206.162 379.655 226.689 379.655 226.689C379.655 226.689 454.808 218.062 466.012 218.069C477.603 218.069 495.743 234.056 497.97 242.609C498.391 244.223 498.457 248.223 493.942 243.649C492.749 242.443 491.655 239.389 488.287 236.736M489.421 244.836C492.855 249.916 490.461 252.13 487.734 250.509C485.146 248.969 484.739 242.283 480.824 239.409" fill="#FCFCFC"/>
<path d="M484.993 238.563C487.72 239.676 489.521 246.143 491.802 248.349C494.082 250.556 497.377 248.723 493.942 243.643M484.712 245.449C488.147 250.529 485.666 252.876 483.025 251.123C481.858 250.349 480.344 248.049 479.064 245.816C476.93 242.096 473.228 239.529 468.987 238.896C460.791 237.676 445.365 237.369 420.41 243.936C379.742 254.643 354.046 253.67 346.73 212.496L374.46 205.396C374.78 206.162 379.655 226.689 379.655 226.689C379.655 226.689 454.808 218.062 466.012 218.069C477.603 218.069 495.743 234.056 497.97 242.609C498.391 244.223 498.457 248.223 493.942 243.649C492.749 242.443 491.655 239.389 488.287 236.736M489.421 244.836C492.855 249.916 490.461 252.13 487.734 250.509C485.146 248.969 484.739 242.283 480.824 239.409" stroke="black" stroke-width="1.92" stroke-miterlimit="10"/>
<path d="M514.363 216.429C519.492 217.709 522.666 224.283 525.907 224.763C529.322 225.269 530.822 222.056 525.267 218.349M529.328 215.289C534.884 218.996 532.323 222.196 529.115 220.916C525.907 219.636 521.419 213.862 518.211 213.862M529.328 215.289C534.884 218.996 532.323 222.196 529.115 220.916C525.907 219.636 521.419 213.862 518.211 213.862M520.779 220.916C526.334 224.623 524.807 228.003 521.419 227.329C519.925 227.029 517.451 225.336 515.237 223.616C511.549 220.743 506.76 219.683 502.225 220.803C493.462 222.956 477.79 229.009 455.355 245.93C418.796 273.503 392.493 283.117 368.124 244.649L393.14 226.056C393.78 226.696 403.404 240.163 403.404 240.163C403.404 240.163 479.344 205.669 490.635 201.049C502.319 196.269 527.194 204.896 532.97 212.589C534.057 214.042 535.777 218.043 529.335 215.296C527.634 214.569 525.274 211.949 520.785 210.662" fill="white"/>
<path d="M514.363 216.429C519.492 217.709 522.666 224.283 525.907 224.763C529.322 225.269 530.822 222.056 525.267 218.349M529.328 215.289C534.884 218.996 532.323 222.196 529.115 220.916C525.907 219.636 521.419 213.862 518.211 213.862M520.779 220.916C526.334 224.623 524.807 228.003 521.419 227.329C519.925 227.029 517.451 225.336 515.237 223.616C511.549 220.743 506.76 219.683 502.225 220.803C493.462 222.956 477.79 229.009 455.355 245.93C418.796 273.503 392.493 283.117 368.124 244.649L393.14 226.056C393.78 226.696 403.404 240.163 403.404 240.163C403.404 240.163 479.344 205.669 490.635 201.049C502.319 196.269 527.194 204.896 532.97 212.589C534.057 214.042 535.777 218.043 529.335 215.296C527.634 214.569 525.274 211.949 520.785 210.662" stroke="black" stroke-width="1.92" stroke-miterlimit="10"/>
<path d="M154.202 586.72H279.28V370.638H154.202L154.202 586.72Z" fill="#073355"/>
<path d="M212.109 402.938C215.542 402.938 218.324 400.156 218.324 396.725C218.324 393.293 215.542 390.511 212.109 390.511C208.676 390.511 205.893 393.293 205.893 396.725C205.893 400.156 208.676 402.938 212.109 402.938Z" fill="#E8F5F1"/>
<path d="M175.281 413.538C177.708 411.111 177.708 407.177 175.281 404.751C172.854 402.324 168.918 402.324 166.491 404.751C164.064 407.177 164.064 411.111 166.491 413.538C168.918 415.964 172.854 415.964 175.281 413.538Z" fill="#E8F5F1"/>
<path d="M203.639 439.625C207.068 439.625 209.848 436.846 209.848 433.418C209.848 429.99 207.068 427.212 203.639 427.212C200.21 427.212 197.43 429.99 197.43 433.418C197.43 436.846 200.21 439.625 203.639 439.625Z" fill="#E8F5F1"/>
<path d="M196.742 474.515C199.169 472.088 199.169 468.154 196.742 465.728C194.314 463.301 190.379 463.301 187.952 465.728C185.524 468.154 185.524 472.088 187.952 474.515C190.379 476.941 194.314 476.941 196.742 474.515Z" fill="#E8F5F1"/>
<path d="M187.711 515.72C190.139 513.294 190.139 509.36 187.711 506.933C185.284 504.507 181.349 504.507 178.921 506.933C176.494 509.36 176.494 513.294 178.921 515.72C181.349 518.147 185.284 518.147 187.711 515.72Z" fill="#E8F5F1"/>
<path d="M209.855 545.773C213.287 545.773 216.07 542.991 216.07 539.56C216.07 536.128 213.287 533.346 209.855 533.346C206.422 533.346 203.639 536.128 203.639 539.56C203.639 542.991 206.422 545.773 209.855 545.773Z" fill="#E8F5F1"/>
<path d="M185.664 557.213C186.971 554.039 185.456 550.408 182.282 549.102C179.107 547.796 175.475 549.31 174.169 552.483C172.862 555.657 174.376 559.288 177.551 560.594C180.725 561.9 184.358 560.386 185.664 557.213Z" fill="#E8F5F1"/>
<path d="M230.06 504.996C232.488 502.57 232.488 498.636 230.06 496.209C227.633 493.783 223.698 493.783 221.27 496.209C218.843 498.636 218.843 502.57 221.27 504.996C223.698 507.423 227.633 507.423 230.06 504.996Z" fill="#E8F5F1"/>
<path d="M231.876 466.172C235.309 466.172 238.092 463.39 238.092 459.959C238.092 456.527 235.309 453.745 231.876 453.745C228.443 453.745 225.66 456.527 225.66 459.959C225.66 463.39 228.443 466.172 231.876 466.172Z" fill="#E8F5F1"/>
<path d="M265.156 450.649C267.827 448.494 268.244 444.582 266.087 441.912C263.93 439.242 260.017 438.825 257.346 440.981C254.676 443.137 254.259 447.049 256.415 449.719C258.572 452.389 262.485 452.805 265.156 450.649Z" fill="#E8F5F1"/>
<path d="M265.165 495.811C267.836 493.655 268.252 489.743 266.096 487.073C263.939 484.403 260.026 483.986 257.355 486.142C254.684 488.298 254.268 492.21 256.424 494.88C258.581 497.55 262.494 497.966 265.165 495.811Z" fill="#E8F5F1"/>
<path d="M245.994 532.779C249.423 532.779 252.203 530.001 252.203 526.573C252.203 523.145 249.423 520.366 245.994 520.366C242.565 520.366 239.785 523.145 239.785 526.573C239.785 530.001 242.565 532.779 245.994 532.779Z" fill="#E8F5F1"/>
<path d="M262.792 559.706C266.113 558.839 268.103 555.445 267.236 552.124C266.369 548.804 262.973 546.815 259.652 547.682C256.331 548.549 254.341 551.943 255.208 555.263C256.075 558.583 259.47 560.572 262.792 559.706Z" fill="#E8F5F1"/>
<path d="M244.177 423.701C246.604 421.275 246.604 417.341 244.177 414.914C241.75 412.488 237.814 412.488 235.387 414.914C232.96 417.341 232.96 421.275 235.387 423.701C237.814 426.128 241.75 426.128 244.177 423.701Z" fill="#E8F5F1"/>
<path d="M251.703 86.5877C251.703 86.5877 216.424 111.595 197.824 69.2741C179.224 26.9537 235.25 74.5142 184.939 96.5278C161.584 104.221 152.601 74.0875 142.984 58.694C133.361 43.3072 117.969 49.7139 115.401 74.7209C112.147 104.468 94.4002 87.0477 84.8835 75.2142C73.8663 61.514 53.3856 59.8407 40.6144 71.9208C40.3143 72.2075 40.0142 72.5008 39.7141 72.8008" stroke="black" stroke-width="1.92" stroke-miterlimit="10" stroke-linecap="round"/>
<path d="M0.640137 269.643C23.9951 261.95 32.9783 292.083 42.5951 307.477C52.2185 322.864 67.6106 316.457 70.1782 291.45C73.4327 261.703 91.179 279.123 100.696 290.957C111.713 304.657 132.194 306.33 144.965 294.25C145.265 293.963 145.565 293.67 145.865 293.37" stroke="black" stroke-width="1.92" stroke-miterlimit="10" stroke-linecap="round"/>
<path d="M693 587.04H0.266846" stroke="black" stroke-width="2.88" stroke-miterlimit="10"/>
<path d="M256.531 154.128C281.667 163.762 303.621 166.509 317.446 151.668L345.67 114.481C342.462 116.408 334.126 102.301 342.462 99.0945C350.798 95.8878 352.726 104.221 352.726 104.221C370.045 106.788 377.101 87.5477 377.101 87.5477C384.797 101.015 393.78 98.4478 393.78 98.4478C390.366 63.5141 357.234 61.4141 335.753 70.5208C337.167 68.6008 337.98 66.2941 337.98 63.8208C337.98 57.094 331.952 51.6406 324.509 51.6406C317.066 51.6406 311.037 57.094 311.037 63.8208C311.037 70.5475 317.066 76.0009 324.509 76.0009C325.069 76.0009 325.616 75.9676 326.163 75.9076C320.601 80.0543 317.166 85.061 317.453 90.1077C317.907 98.0278 309.117 96.5211 309.117 96.5211C284.741 93.9544 284.101 111.268 284.101 111.268C282.174 124.735 273.837 125.375 273.837 125.375C258.265 128.995 252.803 136.908 251.003 143.108C249.689 147.635 252.13 152.428 256.538 154.115L256.531 154.128Z" fill="black"/>
<path d="M357.814 151.668C358.328 151.622 358.868 164.455 359.061 169.522C359.108 170.802 359.682 171.995 360.649 172.835C366.517 177.962 387.998 197.702 398.662 220.622C399.596 222.629 398.935 225.023 397.135 226.316L367.351 247.663C366.597 248.203 365.704 248.503 364.777 248.529L282.201 250.89C279.206 250.976 276.905 248.243 277.512 245.309C281 228.369 292.944 178.022 316.526 149.448C316.713 149.222 316.88 148.975 317.02 148.715L319.734 143.662C320.948 141.402 323.762 140.548 326.023 141.762C333.085 145.542 347.851 152.622 357.814 151.675V151.668Z" fill="black"/>
<path d="M320.014 156.795V169.789" stroke="white" stroke-width="4.81" stroke-miterlimit="10" stroke-linecap="round"/>
<path d="M350.885 169.709H337.887" stroke="white" stroke-width="4.81" stroke-miterlimit="10" stroke-linecap="round"/>
<path d="M317.873 188.935L327.283 179.975" stroke="white" stroke-width="4.81" stroke-miterlimit="10" stroke-linecap="round"/>
<path d="M347.51 186.315L346.396 199.262" stroke="white" stroke-width="4.81" stroke-miterlimit="10" stroke-linecap="round"/>
<path d="M362.309 186.675L373.927 192.495" stroke="white" stroke-width="4.81" stroke-miterlimit="10" stroke-linecap="round"/>
<path d="M369.451 210.129L382.183 207.509" stroke="white" stroke-width="4.81" stroke-miterlimit="10" stroke-linecap="round"/>
<path d="M361.809 225.949L369.298 236.569" stroke="white" stroke-width="4.81" stroke-miterlimit="10" stroke-linecap="round"/>
<path d="M327.03 150.768L338.647 156.588" stroke="white" stroke-width="4.81" stroke-miterlimit="10" stroke-linecap="round"/>
<path d="M298.953 195.049L307.716 204.636" stroke="white" stroke-width="4.81" stroke-miterlimit="10" stroke-linecap="round"/>
<path d="M321.888 203.689L334.819 202.409" stroke="white" stroke-width="4.81" stroke-miterlimit="10" stroke-linecap="round"/>
<path d="M335.84 213.456L346.523 220.849" stroke="white" stroke-width="4.81" stroke-miterlimit="10" stroke-linecap="round"/>
<path d="M297.353 215.382L308.036 222.776" stroke="white" stroke-width="4.81" stroke-miterlimit="10" stroke-linecap="round"/>
<path d="M288.749 222.843L288.416 235.829" stroke="white" stroke-width="4.81" stroke-miterlimit="10" stroke-linecap="round"/>
<path d="M314.319 236.623L301.334 236.163" stroke="white" stroke-width="4.81" stroke-miterlimit="10" stroke-linecap="round"/>
<path d="M339.708 241.116L332.385 230.383" stroke="white" stroke-width="4.81" stroke-miterlimit="10" stroke-linecap="round"/>
<path d="M346.63 103.535C344.743 106.228 345.843 108.728 348.571 110.088C349.364 110.488 348.751 111.661 347.971 111.235C345.176 109.321 344.089 106.181 346.623 103.541L346.63 103.535Z" fill="black"/>
<path d="M371.005 131.788C366.464 131.588 362.076 128.648 361.008 124.108C360.988 124.035 361.102 124.001 361.122 124.075C362.309 128.408 366.657 131.128 371.032 131.142C371.459 131.142 371.439 131.802 371.012 131.782L371.005 131.788Z" fill="black"/>
<path d="M629.818 324.47C634.598 324.47 638.474 320.596 638.474 315.817C638.474 311.038 634.598 307.163 629.818 307.163C625.037 307.163 621.161 311.038 621.161 315.817C621.161 320.596 625.037 324.47 629.818 324.47Z" stroke="black" stroke-width="1.85" stroke-miterlimit="10" stroke-linecap="round"/>
<path d="M48.0505 30.8004C52.8313 30.8004 56.7069 26.9261 56.7069 22.147C56.7069 17.3678 52.8313 13.4935 48.0505 13.4935C43.2697 13.4935 39.394 17.3678 39.394 22.147C39.394 26.9261 43.2697 30.8004 48.0505 30.8004Z" stroke="black" stroke-width="1.85" stroke-miterlimit="10" stroke-linecap="round"/>
<path d="M360.748 136.775C360.748 136.775 352.405 136.602 347.277 131.475C347.277 131.475 356.9 134.682 361.068 133.775L360.748 136.775Z" fill="black"/>
<path d="M490.048 2.00002C517.477 2.00002 539.799 24.3069 539.799 51.7339C539.799 79.1609 517.484 101.468 490.048 101.468C462.611 101.468 440.297 79.1609 440.297 51.7339C440.297 24.3069 462.611 2.00002 490.048 2.00002ZM490.048 0C461.471 0 438.296 23.1603 438.296 51.7339C438.296 80.3076 461.464 103.468 490.048 103.468C518.631 103.468 541.799 80.3076 541.799 51.7339C541.799 23.1603 518.624 0 490.048 0Z" fill="black"/>
<path d="M490.048 14.4269V51.734" stroke="black" stroke-width="3" stroke-linecap="round" stroke-linejoin="round"/>
<path d="M508.354 70.0274L490.048 51.7339" stroke="black" stroke-width="3" stroke-linecap="round" stroke-linejoin="round"/>
<path d="M493.916 51.734C493.916 53.874 492.182 55.6074 490.041 55.6074C487.9 55.6074 486.166 53.874 486.166 51.734C486.166 49.5939 487.9 47.8606 490.041 47.8606C492.182 47.8606 493.916 49.5939 493.916 51.734Z" fill="black"/>
</g>
<defs>
<clipPath id="clip0_376_12091">
<rect width="693" height="588" fill="white"/>
</clipPath>
</defs>
</svg>
